<svg width="500" height="733" viewBox="0 0 500 733" fill="none" xmlns="http://www.w3.org/2000/svg">
<mask id="path-1-outside-1_7_6" maskUnits="userSpaceOnUse" x="-0.746399" y="-0.981339" width="500" height="734" fill="black">
<rect fill="white" x="-0.746399" y="-0.981339" width="500" height="734"/>
<path d="M16.2639 530.463L53.3019 462.809L64.8137 429.722L92.8425 384.29L129.38 327.006L164.416 316.142L174.927 340.34L159.411 378.364L129.38 436.636L126.377 534.908L129.38 568.982V612.932L87.3368 637.624L28.7767 633.673L6.2536 594.167L16.2639 530.463Z"/>
<path d="M169.922 226.759L175.928 172.932L236.49 210.463L246.5 268.735L211.464 287.5L175.928 316.142L169.922 226.759Z"/>
<path d="M319.575 274.661L226.98 281.574L156.408 321.08L114.865 368.488L121.872 498.858L128.379 560.587L145.396 605.031L269.023 635.154L401.66 594.661L428.187 478.611L394.152 331.451L319.575 274.661Z"/>
<path d="M493.254 525.525L483.744 450.463L457.717 360.587L430.689 332.932L409.668 322.562L369.627 317.624L338.595 337.871L342.599 386.759L362.119 460.833L369.627 549.722L359.116 594.167L342.599 622.315L345.602 649.969L376.634 683.056C388.646 683.385 413.271 683.846 415.674 683.056C418.076 682.266 446.038 669.722 457.717 664.784L487.748 636.636L493.254 579.846V525.525Z"/>
<path d="M119.87 487.5L111.362 419.352L115.866 366.019L137.889 342.315L169.421 373.92L215.468 387.253L283.538 383.796L362.119 338.364L375.132 404.043L366.624 487.5L314.57 530.463L169.421 526.512L119.87 487.5Z"/>
<path d="M260.515 608.488L376.634 600.093L405.163 611.945L418.177 650.463L407.165 679.105L346.603 689.969L196.949 679.105L163.415 683.056L145.396 689.969L140.892 701.821L147.399 710.216L145.396 715.648L133.885 712.192L136.888 724.043L129.38 726.019L118.869 715.648L117.368 701.821H113.364L105.355 689.969H99.3492L86.8363 669.229L96.3461 637.13L140.892 615.401L186.439 608.488H260.515Z"/>
<path d="M223.977 270.71L216.469 226.759L297.553 204.537L304.059 259.846L362.619 339.352L270.024 385.772L192.445 380.34L141.392 339.352L223.977 270.71Z"/>
<path d="M208.962 238.611L172.925 198.611L162.414 134.414L165.417 56.8829L194.447 21.8211L232.486 7.00632L277.032 17.3767L314.57 56.8829V198.611L258.012 238.611H208.962Z"/>
<path d="M211.545 201.399C211.709 201.091 212.066 200.989 212.343 201.17C212.798 201.469 213.613 201.789 214.701 202.063C215.775 202.334 217.072 202.549 218.46 202.662C221.248 202.888 224.336 202.695 226.704 201.765C227.007 201.646 227.34 201.823 227.447 202.161C227.554 202.498 227.395 202.868 227.092 202.988C224.51 204.001 221.24 204.186 218.374 203.954C216.935 203.837 215.581 203.614 214.444 203.327C213.32 203.044 212.364 202.689 211.751 202.287C211.474 202.105 211.382 201.707 211.545 201.399Z"/>
<path d="M220.474 38.6113L234.988 6.51249L254.508 6.01866L302.057 17.8705L344.1 65.2779L357.614 151.698L372.63 210.463L362.619 244.043L386.144 287.006L411.67 321.08L457.717 344.784L440.199 361.574L402.661 363.056L381.138 352.192L372.63 321.08L335.592 339.846L329.085 316.142L305.561 357.13V277.624L297.553 234.661V192.685L309.565 151.698L305.561 79.5989L254.508 47.0063L220.474 38.6113Z"/>
<path d="M57.8065 525.031H96.3461L109.86 539.352L123.374 556.636H159.411L215.969 578.364L246.5 593.673L265.019 598.611L269.524 603.55L261.015 608.488L294.049 642.562L290.045 654.414L227.481 617.871L283.538 669.722L280.035 681.574H265.019L235.989 684.537L195.448 676.142L140.892 627.253L89.3389 639.105L39.788 627.253L17.2649 598.611V548.735L57.8065 525.031Z"/>
<path d="M92.342 357.13L119.87 330.463L143.895 282.068V252.932L137.388 233.179L134.886 194.167L130.381 163.55L139.891 128.488L143.895 89.9693L171.924 38.6113L193.446 20.8335L234.988 6.51249L213.967 38.6113L176.428 51.4508L165.417 87.0063V145.772L181.433 208.488L196.449 260.833L181.433 299.846L165.417 348.241L157.409 318.117L146.898 348.241L124.375 375.895V348.241L102.853 389.229L92.342 375.895L65.3142 393.179L92.342 357.13Z"/>
<path d="M198.451 168.982L207.46 121.574L219.473 128.488L222.476 144.784L227.981 159.105L231.985 167.5L228.482 173.92H224.978L218.471 179.352L210.964 180.34L207.46 177.871L201.454 171.451L198.451 168.982Z"/>
<path d="M195.531 189.731C195.803 188.958 196.658 188.549 197.441 188.817C201.408 190.175 208.283 191.825 215.877 192.305C223.489 192.787 231.66 192.083 238.337 188.883C239.082 188.526 239.981 188.833 240.344 189.569C240.706 190.305 240.394 191.192 239.648 191.549C232.311 195.065 223.548 195.76 215.685 195.262C207.806 194.764 200.665 193.056 196.458 191.616C195.674 191.348 195.259 190.504 195.531 189.731Z"/>
<path d="M172.424 122.068C172.925 122.562 183.936 111.698 199.952 122.068C197.95 128.488 180.933 130.463 172.424 122.068Z"/>
<path d="M232.486 122.147C236.156 118.361 246.901 113.06 260.515 122.147C256.01 125.439 243.497 131.53 232.486 122.147Z"/>
</mask>
<path d="M16.2639 530.463L53.3019 462.809L64.8137 429.722L92.8425 384.29L129.38 327.006L164.416 316.142L174.927 340.34L159.411 378.364L129.38 436.636L126.377 534.908L129.38 568.982V612.932L87.3368 637.624L28.7767 633.673L6.2536 594.167L16.2639 530.463Z" fill="#693F3F"/>
<path d="M169.922 226.759L175.928 172.932L236.49 210.463L246.5 268.735L211.464 287.5L175.928 316.142L169.922 226.759Z" fill="#564242"/>
<path d="M319.575 274.661L226.98 281.574L156.408 321.08L114.865 368.488L121.872 498.858L128.379 560.587L145.396 605.031L269.023 635.154L401.66 594.661L428.187 478.611L394.152 331.451L319.575 274.661Z" fill="#DAD6B4"/>
<path d="M493.254 525.525L483.744 450.463L457.717 360.587L430.689 332.932L409.668 322.562L369.627 317.624L338.595 337.871L342.599 386.759L362.119 460.833L369.627 549.722L359.116 594.167L342.599 622.315L345.602 649.969L376.634 683.056C388.646 683.385 413.271 683.846 415.674 683.056C418.076 682.266 446.038 669.722 457.717 664.784L487.748 636.636L493.254 579.846V525.525Z" fill="#693F3F"/>
<path d="M119.87 487.5L111.362 419.352L115.866 366.019L137.889 342.315L169.421 373.92L215.468 387.253L283.538 383.796L362.119 338.364L375.132 404.043L366.624 487.5L314.57 530.463L169.421 526.512L119.87 487.5Z" fill="#925A5A"/>
<path d="M260.515 608.488L376.634 600.093L405.163 611.945L418.177 650.463L407.165 679.105L346.603 689.969L196.949 679.105L163.415 683.056L145.396 689.969L140.892 701.821L147.399 710.216L145.396 715.648L133.885 712.192L136.888 724.043L129.38 726.019L118.869 715.648L117.368 701.821H113.364L105.355 689.969H99.3492L86.8363 669.229L96.3461 637.13L140.892 615.401L186.439 608.488H260.515Z" fill="#574545"/>
<path d="M223.977 270.71L216.469 226.759L297.553 204.537L304.059 259.846L362.619 339.352L270.024 385.772L192.445 380.34L141.392 339.352L223.977 270.71Z" fill="#DAD6B4"/>
<path d="M208.962 238.611L172.925 198.611L162.414 134.414L165.417 56.8829L194.447 21.8211L232.486 7.00632L277.032 17.3767L314.57 56.8829V198.611L258.012 238.611H208.962Z" fill="#F0EDCE"/>
<path d="M211.545 201.399C211.709 201.091 212.066 200.989 212.343 201.17C212.798 201.469 213.613 201.789 214.701 202.063C215.775 202.334 217.072 202.549 218.46 202.662C221.248 202.888 224.336 202.695 226.704 201.765C227.007 201.646 227.34 201.823 227.447 202.161C227.554 202.498 227.395 202.868 227.092 202.988C224.51 204.001 221.24 204.186 218.374 203.954C216.935 203.837 215.581 203.614 214.444 203.327C213.32 203.044 212.364 202.689 211.751 202.287C211.474 202.105 211.382 201.707 211.545 201.399Z" fill="#605050"/>
<path d="M220.474 38.6113L234.988 6.51249L254.508 6.01866L302.057 17.8705L344.1 65.2779L357.614 151.698L372.63 210.463L362.619 244.043L386.144 287.006L411.67 321.08L457.717 344.784L440.199 361.574L402.661 363.056L381.138 352.192L372.63 321.08L335.592 339.846L329.085 316.142L305.561 357.13V277.624L297.553 234.661V192.685L309.565 151.698L305.561 79.5989L254.508 47.0063L220.474 38.6113Z" fill="#605050"/>
<path d="M57.8065 525.031H96.3461L109.86 539.352L123.374 556.636H159.411L215.969 578.364L246.5 593.673L265.019 598.611L269.524 603.55L261.015 608.488L294.049 642.562L290.045 654.414L227.481 617.871L283.538 669.722L280.035 681.574H265.019L235.989 684.537L195.448 676.142L140.892 627.253L89.3389 639.105L39.788 627.253L17.2649 598.611V548.735L57.8065 525.031Z" fill="#605050"/>
<path d="M92.342 357.13L119.87 330.463L143.895 282.068V252.932L137.388 233.179L134.886 194.167L130.381 163.55L139.891 128.488L143.895 89.9693L171.924 38.6113L193.446 20.8335L234.988 6.51249L213.967 38.6113L176.428 51.4508L165.417 87.0063V145.772L181.433 208.488L196.449 260.833L181.433 299.846L165.417 348.241L157.409 318.117L146.898 348.241L124.375 375.895V348.241L102.853 389.229L92.342 375.895L65.3142 393.179L92.342 357.13Z" fill="#605050"/>
<path d="M198.451 168.982L207.46 121.574L219.473 128.488L222.476 144.784L227.981 159.105L231.985 167.5L228.482 173.92H224.978L218.471 179.352L210.964 180.34L207.46 177.871L201.454 171.451L198.451 168.982Z" fill="#605050"/>
<path d="M195.531 189.731C195.803 188.958 196.658 188.549 197.441 188.817C201.408 190.175 208.283 191.825 215.877 192.305C223.489 192.787 231.66 192.083 238.337 188.883C239.082 188.526 239.981 188.833 240.344 189.569C240.706 190.305 240.394 191.192 239.648 191.549C232.311 195.065 223.548 195.76 215.685 195.262C207.806 194.764 200.665 193.056 196.458 191.616C195.674 191.348 195.259 190.504 195.531 189.731Z" fill="#605050"/>
<path d="M172.424 122.068C172.925 122.562 183.936 111.698 199.952 122.068C197.95 128.488 180.933 130.463 172.424 122.068Z" fill="#605050"/>
<path d="M232.486 122.147C236.156 118.361 246.901 113.06 260.515 122.147C256.01 125.439 243.497 131.53 232.486 122.147Z" fill="#605050"/>
<path d="M53.3019 462.809L58.5648 465.69L58.8046 465.252L58.9687 464.78L53.3019 462.809ZM16.2639 530.463L11.0009 527.582L10.4989 528.499L10.3366 529.532L16.2639 530.463ZM6.2536 594.167L0.326334 593.235L-6.19888e-06 595.312L1.0412 597.138L6.2536 594.167ZM28.7767 633.673L23.5643 636.645L25.1595 639.443L28.3729 639.659L28.7767 633.673ZM87.3368 637.624L86.933 643.61L88.7795 643.735L90.3753 642.797L87.3368 637.624ZM129.38 612.932L132.418 618.106L135.38 616.367V612.932H129.38ZM129.38 568.982H135.38V568.718L135.357 568.455L129.38 568.982ZM126.377 534.908L120.38 534.724L120.369 535.08L120.4 535.434L126.377 534.908ZM129.38 436.636L124.047 433.887L123.424 435.095L123.383 436.453L129.38 436.636ZM159.411 378.364L164.744 381.113L164.866 380.877L164.966 380.631L159.411 378.364ZM174.927 340.34L180.482 342.606L181.437 340.267L180.43 337.949L174.927 340.34ZM164.416 316.142L169.919 313.752L167.776 308.818L162.639 310.411L164.416 316.142ZM129.38 327.006L127.603 321.276L125.503 321.927L124.321 323.78L129.38 327.006ZM92.8425 384.29L87.7839 381.064L87.7597 381.102L87.7361 381.14L92.8425 384.29ZM64.8137 429.722L59.7073 426.572L59.3626 427.131L59.1469 427.751L64.8137 429.722ZM175.928 172.932L179.088 167.832L171.018 162.831L169.965 172.267L175.928 172.932ZM169.922 226.759L163.959 226.094L163.899 226.627L163.935 227.162L169.922 226.759ZM175.928 316.142L169.941 316.544L170.714 328.05L179.693 320.814L175.928 316.142ZM211.464 287.5L208.631 282.211L208.136 282.476L207.699 282.829L211.464 287.5ZM246.5 268.735L249.333 274.024L253.146 271.982L252.414 267.719L246.5 268.735ZM236.49 210.463L242.403 209.447L241.946 206.786L239.651 205.363L236.49 210.463ZM226.98 281.574L226.533 275.591L225.209 275.69L224.049 276.339L226.98 281.574ZM319.575 274.661L323.21 269.887L321.399 268.508L319.129 268.677L319.575 274.661ZM394.152 331.451L399.998 330.099L399.51 327.989L397.787 326.677L394.152 331.451ZM428.187 478.611L434.036 479.948L434.343 478.603L434.032 477.259L428.187 478.611ZM401.66 594.661L403.411 600.399L406.734 599.385L407.509 595.998L401.66 594.661ZM269.023 635.154L267.603 640.984L269.202 641.373L270.775 640.893L269.023 635.154ZM145.396 605.031L139.793 607.176L140.918 610.115L143.976 610.86L145.396 605.031ZM121.872 498.858L115.881 499.18L115.889 499.334L115.905 499.487L121.872 498.858ZM114.865 368.488L110.353 364.533L108.743 366.371L108.874 368.81L114.865 368.488ZM156.408 321.08L153.477 315.845L152.576 316.349L151.895 317.126L156.408 321.08ZM128.379 560.587L122.412 561.216L122.494 561.998L122.776 562.732L128.379 560.587ZM483.744 450.463L489.696 449.709L489.637 449.244L489.507 448.794L483.744 450.463ZM493.254 525.525H499.254V525.146L499.206 524.771L493.254 525.525ZM487.748 636.636L491.851 641.014L493.502 639.467L493.72 637.215L487.748 636.636ZM457.717 664.784L460.054 670.31L461.04 669.894L461.82 669.162L457.717 664.784ZM376.634 683.056L372.258 687.16L373.969 688.985L376.469 689.053L376.634 683.056ZM345.602 649.969L339.637 650.617L339.854 652.611L341.226 654.074L345.602 649.969ZM342.599 622.315L337.424 619.278L336.42 620.99L336.634 622.963L342.599 622.315ZM359.116 594.167L364.291 597.203L364.747 596.425L364.955 595.548L359.116 594.167ZM369.627 549.722L375.466 551.103L375.686 550.171L375.605 549.217L369.627 549.722ZM362.119 460.833L368.098 460.329L368.054 459.809L367.921 459.305L362.119 460.833ZM342.599 386.759L336.619 387.249L336.662 387.777L336.797 388.288L342.599 386.759ZM338.595 337.871L335.316 332.846L332.323 334.798L332.615 338.36L338.595 337.871ZM369.627 317.624L370.361 311.669L368.185 311.4L366.348 312.599L369.627 317.624ZM430.689 332.932L434.98 328.738L434.264 328.005L433.344 327.551L430.689 332.932ZM457.717 360.587L463.48 358.918L463.061 357.47L462.008 356.393L457.717 360.587ZM409.668 322.562L412.322 317.181L411.411 316.731L410.402 316.607L409.668 322.562ZM493.254 579.846L499.226 580.425L499.254 580.136V579.846H493.254ZM111.362 419.352L105.383 418.847L105.33 419.472L105.408 420.095L111.362 419.352ZM119.87 487.5L113.916 488.244L114.222 490.69L116.159 492.214L119.87 487.5ZM169.421 526.512L165.71 531.227L167.271 532.456L169.258 532.51L169.421 526.512ZM314.57 530.463L314.407 536.461L316.655 536.522L318.389 535.09L314.57 530.463ZM366.624 487.5L370.443 492.128L372.343 490.559L372.593 488.109L366.624 487.5ZM375.132 404.043L381.101 404.652L381.192 403.758L381.018 402.877L375.132 404.043ZM362.119 338.364L368.005 337.198L366.375 328.973L359.116 333.17L362.119 338.364ZM283.538 383.796L283.843 389.789L285.288 389.715L286.541 388.991L283.538 383.796ZM215.468 387.253L213.8 393.016L214.767 393.297L215.773 393.245L215.468 387.253ZM169.421 373.92L165.174 378.158L166.266 379.253L167.752 379.683L169.421 373.92ZM137.889 342.315L142.136 338.077L137.735 333.666L133.493 338.231L137.889 342.315ZM115.866 366.019L111.47 361.935L110.062 363.451L109.887 365.514L115.866 366.019ZM376.634 600.093L378.936 594.552L377.621 594.006L376.201 594.108L376.634 600.093ZM260.515 608.488V614.488H260.731L260.947 614.472L260.515 608.488ZM186.439 608.488V602.488H185.986L185.538 602.556L186.439 608.488ZM140.892 615.401L139.991 609.469L139.085 609.607L138.261 610.009L140.892 615.401ZM96.3461 637.13L93.7157 631.737L91.3431 632.894L90.5933 635.425L96.3461 637.13ZM86.8363 669.229L81.0835 667.524L80.3317 670.062L81.6989 672.328L86.8363 669.229ZM99.3492 689.969L94.2117 693.069L95.9616 695.969H99.3492V689.969ZM105.355 689.969L110.327 686.61L108.542 683.969H105.355V689.969ZM113.364 701.821L108.392 705.18L110.176 707.821H113.364V701.821ZM117.368 701.821L123.333 701.173L122.751 695.821H117.368V701.821ZM118.869 715.648L112.904 716.296L113.135 718.419L114.655 719.919L118.869 715.648ZM129.38 726.019L125.166 730.29L127.6 732.691L130.907 731.821L129.38 726.019ZM136.888 724.043L138.414 729.846L144.164 728.333L142.704 722.57L136.888 724.043ZM133.885 712.192L135.61 706.445L125.467 703.399L128.068 713.665L133.885 712.192ZM145.396 715.648L143.671 721.395L149.075 723.018L151.026 717.723L145.396 715.648ZM147.399 710.216L153.028 712.291L154.179 709.17L152.141 706.541L147.399 710.216ZM140.892 701.821L135.283 699.689L134.087 702.836L136.149 705.497L140.892 701.821ZM145.396 689.969L143.247 684.367L140.741 685.329L139.788 687.838L145.396 689.969ZM163.415 683.056L162.713 677.097L161.967 677.185L161.266 677.454L163.415 683.056ZM196.949 679.105L197.384 673.121L196.814 673.08L196.247 673.146L196.949 679.105ZM346.603 689.969L346.169 695.954L346.92 696.008L347.662 695.875L346.603 689.969ZM407.165 679.105L408.225 685.011L411.552 684.414L412.766 681.258L407.165 679.105ZM418.177 650.463L423.777 652.616L424.554 650.595L423.861 648.543L418.177 650.463ZM405.163 611.945L410.848 610.024L409.977 607.447L407.465 606.404L405.163 611.945ZM216.469 226.759L214.883 220.973L209.64 222.41L210.555 227.77L216.469 226.759ZM223.977 270.71L227.812 275.324L230.474 273.112L229.891 269.7L223.977 270.71ZM141.392 339.352L137.557 334.738L131.909 339.433L137.636 344.031L141.392 339.352ZM192.445 380.34L188.688 385.018L190.153 386.194L192.026 386.325L192.445 380.34ZM270.024 385.772L269.605 391.757L271.244 391.872L272.713 391.135L270.024 385.772ZM362.619 339.352L365.308 344.716L371.672 341.525L367.45 335.794L362.619 339.352ZM304.059 259.846L298.1 260.547L298.286 262.125L299.228 263.404L304.059 259.846ZM297.553 204.537L303.512 203.836L302.696 196.906L295.967 198.751L297.553 204.537ZM172.925 198.611L167.004 199.581L167.288 201.319L168.467 202.627L172.925 198.611ZM208.962 238.611L204.504 242.627L206.291 244.611H208.962V238.611ZM258.012 238.611V244.611H259.919L261.477 243.51L258.012 238.611ZM314.57 198.611L318.035 203.51L320.57 201.717V198.611H314.57ZM314.57 56.8829H320.57V54.4869L318.92 52.7499L314.57 56.8829ZM165.417 56.8829L160.796 53.0564L159.5 54.621L159.422 56.6506L165.417 56.8829ZM162.414 134.414L156.418 134.181L156.395 134.786L156.493 135.383L162.414 134.414ZM277.032 17.3767L281.381 13.2437L280.143 11.9406L278.392 11.533L277.032 17.3767ZM232.486 7.00632L233.846 1.16258L232.038 0.741662L230.308 1.41537L232.486 7.00632ZM194.447 21.8211L192.269 16.2302L190.818 16.7953L189.825 17.9947L194.447 21.8211ZM211.545 201.399L206.246 198.584L206.246 198.585L211.545 201.399ZM212.343 201.171L215.639 196.157L215.638 196.156L212.343 201.171ZM214.701 202.063L213.236 207.882H213.236L214.701 202.063ZM218.46 202.662L217.974 208.642L217.974 208.642L218.46 202.662ZM226.704 201.765L228.897 207.35H228.897L226.704 201.765ZM227.447 202.161L233.166 200.346L233.166 200.346L227.447 202.161ZM227.092 202.988L229.285 208.572L229.285 208.572L227.092 202.988ZM218.374 203.954L217.889 209.934H217.889L218.374 203.954ZM214.444 203.327L212.979 209.146L212.979 209.146L214.444 203.327ZM211.751 202.287L208.455 207.3L208.455 207.3L211.751 202.287ZM234.988 6.51249L234.837 0.514408L233.91 0.53786L233.033 0.84008L234.988 6.51249ZM220.474 38.6113L215.007 36.1391L212.035 42.7097L219.037 44.4367L220.474 38.6113ZM254.508 47.0063L257.737 41.9491L256.904 41.4175L255.945 41.1809L254.508 47.0063ZM305.561 79.5989L311.552 79.2662L311.381 76.1962L308.79 74.5416L305.561 79.5989ZM309.565 151.698L315.323 153.385L315.613 152.395L315.556 151.365L309.565 151.698ZM297.553 234.661H291.553V235.215L291.654 235.76L297.553 234.661ZM305.561 277.624H311.561V277.069L311.459 276.524L305.561 277.624ZM305.561 357.13H299.561V379.638L310.765 360.116L305.561 357.13ZM329.085 316.142L334.871 314.554L331.056 300.655L323.881 313.155L329.085 316.142ZM335.592 339.846L329.806 341.434L331.75 348.518L338.303 345.198L335.592 339.846ZM372.63 321.08L378.417 319.498L376.477 312.405L369.918 315.728L372.63 321.08ZM411.67 321.08L406.868 324.678L407.696 325.783L408.924 326.415L411.67 321.08ZM386.144 287.006L380.881 289.888L381.086 290.262L381.342 290.604L386.144 287.006ZM362.619 244.043L356.87 242.329L356.154 244.729L357.357 246.925L362.619 244.043ZM372.63 210.463L378.38 212.177L378.854 210.586L378.443 208.978L372.63 210.463ZM357.614 151.698L351.686 152.625L351.73 152.907L351.801 153.183L357.614 151.698ZM344.1 65.2779L350.028 64.3509L349.757 62.613L348.589 61.2969L344.1 65.2779ZM302.057 17.8705L306.546 13.8895L305.313 12.4983L303.508 12.0486L302.057 17.8705ZM254.508 6.01866L255.96 0.196789L255.17 3.33786e-06L254.357 0.0205808L254.508 6.01866ZM297.553 192.685L291.795 190.998L291.553 191.824V192.685H297.553ZM381.138 352.192L375.351 353.774L376.054 356.346L378.435 357.548L381.138 352.192ZM402.661 363.056L399.957 368.412L401.344 369.112L402.897 369.051L402.661 363.056ZM457.717 344.784L461.869 349.116L467.939 343.298L460.463 339.449L457.717 344.784ZM440.199 361.574L440.436 367.57L442.709 367.48L444.351 365.906L440.199 361.574ZM96.3461 525.031L100.71 520.913L98.9339 519.031H96.3461V525.031ZM57.8065 525.031V519.031H56.1812L54.7781 519.851L57.8065 525.031ZM17.2649 548.735L14.2365 543.555L11.2649 545.292V548.735H17.2649ZM17.2649 598.611H11.2649V600.688L12.5485 602.32L17.2649 598.611ZM39.788 627.253L35.0716 630.962L36.362 632.603L38.3923 633.089L39.788 627.253ZM89.3389 639.105L87.9432 644.94L89.3118 645.268L90.6832 644.953L89.3389 639.105ZM140.892 627.253L144.896 622.785L142.579 620.709L139.548 621.406L140.892 627.253ZM195.448 676.142L191.444 680.611L192.648 681.69L194.231 682.018L195.448 676.142ZM235.989 684.537L234.773 690.413L235.679 690.6L236.599 690.506L235.989 684.537ZM265.019 681.574V675.574H264.714L264.41 675.605L265.019 681.574ZM280.035 681.574V687.574H284.518L285.789 683.275L280.035 681.574ZM283.538 669.722L289.292 671.423L290.349 667.849L287.612 665.318L283.538 669.722ZM227.481 617.871L230.507 612.69L223.407 622.275L227.481 617.871ZM290.045 654.414L287.019 659.595L293.374 663.307L295.729 656.334L290.045 654.414ZM294.049 642.562L299.733 644.482L300.905 641.014L298.357 638.385L294.049 642.562ZM261.015 608.488L258.003 603.298L251.363 607.152L256.707 612.664L261.015 608.488ZM269.524 603.55L272.536 608.739L278.972 605.004L273.957 599.506L269.524 603.55ZM265.019 598.611L269.452 594.568L268.266 593.267L266.565 592.814L265.019 598.611ZM246.5 593.673L243.811 599.037L244.36 599.312L244.954 599.47L246.5 593.673ZM215.969 578.364L218.658 573.001L218.395 572.869L218.121 572.763L215.969 578.364ZM159.411 556.636L161.563 551.035L160.524 550.636H159.411V556.636ZM123.374 556.636L118.647 560.332L120.449 562.636H123.374V556.636ZM109.86 539.352L114.587 535.656L114.415 535.437L114.224 535.234L109.86 539.352ZM119.87 330.463L124.045 334.773L124.786 334.055L125.244 333.131L119.87 330.463ZM92.342 357.13L88.1673 352.82L87.8262 353.151L87.5414 353.531L92.342 357.13ZM65.3142 393.179L60.5136 389.58L68.5467 398.234L65.3142 393.179ZM92.342 375.895L97.0539 372.181L93.6888 367.912L89.1095 370.84L92.342 375.895ZM102.853 389.229L98.1408 392.943L103.866 400.205L108.165 392.018L102.853 389.229ZM124.375 348.241H130.375L119.063 345.452L124.375 348.241ZM124.375 375.895H118.375V392.763L129.027 379.684L124.375 375.895ZM146.898 348.241L151.55 352.03L152.216 351.213L152.563 350.218L146.898 348.241ZM157.409 318.117L163.207 316.576L158.184 297.682L151.744 316.141L157.409 318.117ZM165.417 348.241L159.618 349.782L164.789 369.234L171.113 350.126L165.417 348.241ZM181.433 299.846L175.834 297.691L175.782 297.824L175.737 297.961L181.433 299.846ZM196.449 260.833L202.048 262.989L202.771 261.112L202.216 259.179L196.449 260.833ZM181.433 208.488L175.62 209.972L175.642 210.058L175.666 210.142L181.433 208.488ZM165.417 145.772H159.417V146.526L159.604 147.256L165.417 145.772ZM165.417 87.0063L159.686 85.2313L159.417 86.0985V87.0063H165.417ZM176.428 51.4508L174.487 45.7737L171.6 46.7611L170.697 49.6758L176.428 51.4508ZM213.967 38.6113L215.909 44.2884L217.858 43.6217L218.986 41.8985L213.967 38.6113ZM193.446 20.8335L191.49 15.1611L190.463 15.5153L189.625 16.2076L193.446 20.8335ZM171.924 38.6113L168.103 33.9853L167.211 34.7218L166.657 35.7369L171.924 38.6113ZM143.895 89.9693L138.628 87.095L138.052 88.1516L137.927 89.3489L143.895 89.9693ZM139.891 128.488L145.682 130.058L145.809 129.59L145.859 129.108L139.891 128.488ZM130.381 163.55L124.59 161.979L124.263 163.186L124.445 164.423L130.381 163.55ZM134.886 194.167L140.873 193.783L140.858 193.537L140.822 193.293L134.886 194.167ZM137.388 233.179L131.401 233.563L131.45 234.328L131.689 235.056L137.388 233.179ZM143.895 252.932H149.895V251.969L149.594 251.055L143.895 252.932ZM143.895 282.068L149.269 284.736L149.895 283.475V282.068H143.895ZM207.46 121.574L210.453 116.374L203.141 112.165L201.566 120.454L207.46 121.574ZM198.451 168.982L192.556 167.861L191.892 171.357L194.64 173.616L198.451 168.982ZM210.964 180.34L207.507 185.244L209.423 186.594L211.746 186.288L210.964 180.34ZM218.471 179.352L219.254 185.301L220.98 185.074L222.317 183.958L218.471 179.352ZM228.482 173.92V179.92H232.043L233.748 176.794L228.482 173.92ZM231.985 167.5L237.252 170.374L238.72 167.684L237.401 164.917L231.985 167.5ZM227.981 159.105L222.381 161.258L222.465 161.477L222.566 161.688L227.981 159.105ZM222.476 144.784L216.575 145.871L216.676 146.418L216.875 146.937L222.476 144.784ZM219.473 128.488L225.373 127.4L224.87 124.672L222.465 123.288L219.473 128.488ZM224.978 173.92V167.92H222.803L221.133 169.314L224.978 173.92ZM201.454 171.451L205.835 167.352L205.568 167.065L205.265 166.816L201.454 171.451ZM207.46 177.871L203.079 181.97L203.5 182.42L204.004 182.775L207.46 177.871ZM195.531 189.731L189.871 187.741L189.87 187.742L195.531 189.731ZM197.441 188.817L199.384 183.14L199.383 183.14L197.441 188.817ZM215.877 192.305L215.498 198.293H215.498L215.877 192.305ZM238.337 188.883L235.744 183.472L235.744 183.472L238.337 188.883ZM240.344 189.569L245.727 186.92L245.727 186.919L240.344 189.569ZM239.648 191.549L242.241 196.96L242.241 196.96L239.648 191.549ZM215.685 195.262L215.306 201.251H215.306L215.685 195.262ZM196.458 191.616L194.515 197.292L194.515 197.292L196.458 191.616ZM199.952 122.068L205.68 123.854L207.036 119.507L203.213 117.032L199.952 122.068ZM232.486 122.147L228.178 117.97L223.725 122.564L228.594 126.714L232.486 122.147ZM260.515 122.147L264.055 126.991L270.988 121.924L263.845 117.156L260.515 122.147ZM53.3019 462.809L48.039 459.928L11.0009 527.582L16.2639 530.463L21.5268 533.344L58.5648 465.69L53.3019 462.809ZM16.2639 530.463L10.3366 529.532L0.326334 593.235L6.2536 594.167L12.1809 595.098L22.1911 531.395L16.2639 530.463ZM6.2536 594.167L1.0412 597.138L23.5643 636.645L28.7767 633.673L33.9891 630.701L11.466 591.195L6.2536 594.167ZM28.7767 633.673L28.3729 639.659L86.933 643.61L87.3368 637.624L87.7407 631.637L29.1806 627.687L28.7767 633.673ZM87.3368 637.624L90.3753 642.797L132.418 618.106L129.38 612.932L126.342 607.758L84.2984 632.45L87.3368 637.624ZM129.38 612.932H135.38V568.982H129.38H123.38V612.932H129.38ZM129.38 568.982L135.357 568.455L132.354 534.381L126.377 534.908L120.4 535.434L123.403 569.508L129.38 568.982ZM126.377 534.908L132.374 535.091L135.377 436.819L129.38 436.636L123.383 436.453L120.38 534.724L126.377 534.908ZM129.38 436.636L134.713 439.385L164.744 381.113L159.411 378.364L154.077 375.616L124.047 433.887L129.38 436.636ZM159.411 378.364L164.966 380.631L180.482 342.606L174.927 340.34L169.371 338.073L153.856 376.098L159.411 378.364ZM174.927 340.34L180.43 337.949L169.919 313.752L164.416 316.142L158.913 318.533L169.424 342.73L174.927 340.34ZM164.416 316.142L162.639 310.411L127.603 321.276L129.38 327.006L131.157 332.737L166.193 321.873L164.416 316.142ZM129.38 327.006L124.321 323.78L87.7839 381.064L92.8425 384.29L97.9011 387.517L134.439 330.233L129.38 327.006ZM92.8425 384.29L87.7361 381.14L59.7073 426.572L64.8137 429.722L69.9201 432.873L97.9489 387.441L92.8425 384.29ZM64.8137 429.722L59.1469 427.751L47.6351 460.837L53.3019 462.809L58.9687 464.78L70.4805 431.694L64.8137 429.722ZM175.928 172.932L169.965 172.267L163.959 226.094L169.922 226.759L175.885 227.425L181.891 173.598L175.928 172.932ZM169.922 226.759L163.935 227.162L169.941 316.544L175.928 316.142L181.914 315.74L175.908 226.357L169.922 226.759ZM175.928 316.142L179.693 320.814L215.229 292.172L211.464 287.5L207.699 282.829L172.163 311.471L175.928 316.142ZM211.464 287.5L214.297 292.789L249.333 274.024L246.5 268.735L243.667 263.446L208.631 282.211L211.464 287.5ZM246.5 268.735L252.414 267.719L242.403 209.447L236.49 210.463L230.577 211.479L240.587 269.751L246.5 268.735ZM236.49 210.463L239.651 205.363L179.088 167.832L175.928 172.932L172.767 178.032L233.329 215.563L236.49 210.463ZM226.98 281.574L227.427 287.558L320.022 280.644L319.575 274.661L319.129 268.677L226.533 275.591L226.98 281.574ZM319.575 274.661L315.94 279.434L390.517 336.224L394.152 331.451L397.787 326.677L323.21 269.887L319.575 274.661ZM394.152 331.451L388.306 332.803L422.341 479.963L428.187 478.611L434.032 477.259L399.998 330.099L394.152 331.451ZM428.187 478.611L422.338 477.274L395.81 593.324L401.66 594.661L407.509 595.998L434.036 479.948L428.187 478.611ZM401.66 594.661L399.908 588.922L267.271 629.416L269.023 635.154L270.775 640.893L403.411 600.399L401.66 594.661ZM269.023 635.154L270.444 629.325L146.817 599.202L145.396 605.031L143.976 610.86L267.603 640.984L269.023 635.154ZM121.872 498.858L127.864 498.536L120.856 368.166L114.865 368.488L108.874 368.81L115.881 499.18L121.872 498.858ZM114.865 368.488L119.378 372.442L160.92 325.035L156.408 321.08L151.895 317.126L110.353 364.533L114.865 368.488ZM156.408 321.08L159.339 326.316L229.911 286.81L226.98 281.574L224.049 276.339L153.477 315.845L156.408 321.08ZM145.396 605.031L151 602.886L133.982 558.441L128.379 560.587L122.776 562.732L139.793 607.176L145.396 605.031ZM128.379 560.587L134.346 559.958L127.839 498.229L121.872 498.858L115.905 499.487L122.412 561.216L128.379 560.587ZM483.744 450.463L477.791 451.217L487.301 526.279L493.254 525.525L499.206 524.771L489.696 449.709L483.744 450.463ZM487.748 636.636L483.645 632.258L453.614 660.406L457.717 664.784L461.82 669.162L491.851 641.014L487.748 636.636ZM457.717 664.784L455.38 659.258C449.489 661.749 439.525 666.143 430.8 669.984C426.422 671.911 422.35 673.701 419.225 675.058C417.66 675.738 416.35 676.301 415.363 676.716C414.869 676.924 414.473 677.088 414.176 677.207C413.835 677.345 413.746 677.374 413.799 677.356L415.674 683.056L417.548 688.755C418.488 688.446 421.045 687.35 424.004 686.065C427.162 684.694 431.262 682.892 435.634 680.967C444.41 677.104 454.266 672.758 460.054 670.31L457.717 664.784ZM415.674 683.056L413.799 677.356C414.35 677.175 414.498 677.236 413.396 677.31C412.6 677.363 411.496 677.406 410.117 677.437C407.37 677.498 403.76 677.504 399.801 677.476C391.896 677.418 382.78 677.222 376.798 677.058L376.634 683.056L376.469 689.053C382.5 689.219 391.703 689.417 399.714 689.475C403.714 689.504 407.461 689.499 410.382 689.434C411.837 689.402 413.145 689.354 414.202 689.283C414.955 689.232 416.397 689.134 417.548 688.755L415.674 683.056ZM376.634 683.056L381.01 678.951L349.978 645.865L345.602 649.969L341.226 654.074L372.258 687.16L376.634 683.056ZM345.602 649.969L351.567 649.322L348.564 621.667L342.599 622.315L336.634 622.963L339.637 650.617L345.602 649.969ZM342.599 622.315L347.774 625.351L364.291 597.203L359.116 594.167L353.941 591.13L337.424 619.278L342.599 622.315ZM359.116 594.167L364.955 595.548L375.466 551.103L369.627 549.722L363.788 548.341L353.277 592.786L359.116 594.167ZM369.627 549.722L375.605 549.217L368.098 460.329L362.119 460.833L356.14 461.338L363.648 550.227L369.627 549.722ZM362.119 460.833L367.921 459.305L348.401 385.23L342.599 386.759L336.797 388.288L356.317 462.362L362.119 460.833ZM342.599 386.759L348.579 386.27L344.575 337.381L338.595 337.871L332.615 338.36L336.619 387.249L342.599 386.759ZM338.595 337.871L341.873 342.896L372.905 322.649L369.627 317.624L366.348 312.599L335.316 332.846L338.595 337.871ZM430.689 332.932L426.398 337.126L453.426 364.78L457.717 360.587L462.008 356.393L434.98 328.738L430.689 332.932ZM457.717 360.587L451.954 362.256L477.981 452.132L483.744 450.463L489.507 448.794L463.48 358.918L457.717 360.587ZM369.627 317.624L368.892 323.578L408.933 328.517L409.668 322.562L410.402 316.607L370.361 311.669L369.627 317.624ZM409.668 322.562L407.013 327.943L428.035 338.313L430.689 332.932L433.344 327.551L412.322 317.181L409.668 322.562ZM493.254 525.525H487.254V579.846H493.254H499.254V525.525H493.254ZM493.254 579.846L487.282 579.267L481.776 636.057L487.748 636.636L493.72 637.215L499.226 580.425L493.254 579.846ZM111.362 419.352L105.408 420.095L113.916 488.244L119.87 487.5L125.824 486.757L117.315 418.609L111.362 419.352ZM119.87 487.5L116.159 492.214L165.71 531.227L169.421 526.512L173.133 521.798L123.582 482.786L119.87 487.5ZM169.421 526.512L169.258 532.51L314.407 536.461L314.57 530.463L314.733 524.465L169.584 520.515L169.421 526.512ZM314.57 530.463L318.389 535.09L370.443 492.128L366.624 487.5L362.804 482.873L310.751 525.836L314.57 530.463ZM366.624 487.5L372.593 488.109L381.101 404.652L375.132 404.043L369.163 403.435L360.655 486.892L366.624 487.5ZM375.132 404.043L381.018 402.877L368.005 337.198L362.119 338.364L356.233 339.531L369.247 405.209L375.132 404.043ZM362.119 338.364L359.116 333.17L280.535 378.602L283.538 383.796L286.541 388.991L365.122 343.559L362.119 338.364ZM283.538 383.796L283.234 377.804L215.164 381.261L215.468 387.253L215.773 393.245L283.843 389.789L283.538 383.796ZM215.468 387.253L217.137 381.49L171.09 368.157L169.421 373.92L167.752 379.683L213.8 393.016L215.468 387.253ZM169.421 373.92L173.669 369.682L142.136 338.077L137.889 342.315L133.641 346.553L165.174 378.158L169.421 373.92ZM137.889 342.315L133.493 338.231L111.47 361.935L115.866 366.019L120.262 370.103L142.284 346.399L137.889 342.315ZM115.866 366.019L109.887 365.514L105.383 418.847L111.362 419.352L117.34 419.857L121.845 366.524L115.866 366.019ZM376.634 600.093L376.201 594.108L260.082 602.503L260.515 608.488L260.947 614.472L377.066 606.077L376.634 600.093ZM260.515 608.488V602.488H186.439V608.488V614.488H260.515V608.488ZM186.439 608.488L185.538 602.556L139.991 609.469L140.892 615.401L141.792 621.333L187.339 614.42L186.439 608.488ZM140.892 615.401L138.261 610.009L93.7157 631.737L96.3461 637.13L98.9765 642.522L143.522 620.794L140.892 615.401ZM96.3461 637.13L90.5933 635.425L81.0835 667.524L86.8363 669.229L92.5892 670.933L102.099 638.834L96.3461 637.13ZM86.8363 669.229L81.6989 672.328L94.2117 693.069L99.3492 689.969L104.487 686.87L91.9738 666.129L86.8363 669.229ZM99.3492 689.969V695.969H105.355V689.969V683.969H99.3492V689.969ZM105.355 689.969L100.384 693.328L108.392 705.18L113.364 701.821L118.335 698.462L110.327 686.61L105.355 689.969ZM113.364 701.821V707.821H117.368V701.821V695.821H113.364V701.821ZM117.368 701.821L111.403 702.469L112.904 716.296L118.869 715.648L124.834 715.001L123.333 701.173L117.368 701.821ZM118.869 715.648L114.655 719.919L125.166 730.29L129.38 726.019L133.594 721.748L123.083 711.377L118.869 715.648ZM129.38 726.019L130.907 731.821L138.414 729.846L136.888 724.043L135.361 718.241L127.853 720.216L129.38 726.019ZM136.888 724.043L142.704 722.57L139.701 710.718L133.885 712.192L128.068 713.665L131.072 725.517L136.888 724.043ZM133.885 712.192L132.159 717.938L143.671 721.395L145.396 715.648L147.122 709.902L135.61 706.445L133.885 712.192ZM145.396 715.648L151.026 717.723L153.028 712.291L147.399 710.216L141.769 708.141L139.767 713.573L145.396 715.648ZM147.399 710.216L152.141 706.541L145.634 698.146L140.892 701.821L136.149 705.497L142.656 713.892L147.399 710.216ZM140.892 701.821L146.5 703.953L151.005 692.101L145.396 689.969L139.788 687.838L135.283 699.689L140.892 701.821ZM145.396 689.969L147.546 695.571L165.564 688.658L163.415 683.056L161.266 677.454L143.247 684.367L145.396 689.969ZM163.415 683.056L164.117 689.015L197.651 685.064L196.949 679.105L196.247 673.146L162.713 677.097L163.415 683.056ZM196.949 679.105L196.515 685.089L346.169 695.954L346.603 689.969L347.037 683.985L197.384 673.121L196.949 679.105ZM346.603 689.969L347.662 695.875L408.225 685.011L407.165 679.105L406.106 673.199L345.544 684.064L346.603 689.969ZM407.165 679.105L412.766 681.258L423.777 652.616L418.177 650.463L412.576 648.31L401.565 676.952L407.165 679.105ZM418.177 650.463L423.861 648.543L410.848 610.024L405.163 611.945L399.479 613.865L412.492 652.384L418.177 650.463ZM405.163 611.945L407.465 606.404L378.936 594.552L376.634 600.093L374.332 605.634L402.861 617.485L405.163 611.945ZM216.469 226.759L210.555 227.77L218.063 271.72L223.977 270.71L229.891 269.7L222.384 225.749L216.469 226.759ZM223.977 270.71L220.142 266.096L137.557 334.738L141.392 339.352L145.228 343.966L227.812 275.324L223.977 270.71ZM141.392 339.352L137.636 344.031L188.688 385.018L192.445 380.34L196.201 375.661L145.149 334.673L141.392 339.352ZM192.445 380.34L192.026 386.325L269.605 391.757L270.024 385.772L270.443 379.786L192.864 374.354L192.445 380.34ZM270.024 385.772L272.713 391.135L365.308 344.716L362.619 339.352L359.931 333.988L267.335 380.408L270.024 385.772ZM362.619 339.352L367.45 335.794L308.89 256.288L304.059 259.846L299.228 263.404L357.788 342.91L362.619 339.352ZM304.059 259.846L310.018 259.145L303.512 203.836L297.553 204.537L291.594 205.238L298.1 260.547L304.059 259.846ZM297.553 204.537L295.967 198.751L214.883 220.973L216.469 226.759L218.055 232.546L299.139 210.324L297.553 204.537ZM172.925 198.611L168.467 202.627L204.504 242.627L208.962 238.611L213.419 234.595L177.382 194.595L172.925 198.611ZM208.962 238.611V244.611H258.012V238.611V232.611H208.962V238.611ZM258.012 238.611L261.477 243.51L318.035 203.51L314.57 198.611L311.106 193.713L254.548 233.713L258.012 238.611ZM314.57 198.611H320.57V56.8829H314.57H308.57V198.611H314.57ZM165.417 56.8829L159.422 56.6506L156.418 134.181L162.414 134.414L168.409 134.646L171.413 57.1151L165.417 56.8829ZM162.414 134.414L156.493 135.383L167.004 199.581L172.925 198.611L178.846 197.642L168.335 133.444L162.414 134.414ZM314.57 56.8829L318.92 52.7499L281.381 13.2437L277.032 17.3767L272.682 21.5096L310.221 61.0158L314.57 56.8829ZM277.032 17.3767L278.392 11.533L233.846 1.16258L232.486 7.00632L231.125 12.85L275.671 23.2204L277.032 17.3767ZM232.486 7.00632L230.308 1.41537L192.269 16.2302L194.447 21.8211L196.624 27.4121L234.663 12.5973L232.486 7.00632ZM194.447 21.8211L189.825 17.9947L160.796 53.0564L165.417 56.8829L170.039 60.7093L199.068 25.6476L194.447 21.8211ZM211.545 201.399L216.844 204.214C215.509 206.727 212.001 208.125 209.048 206.185L212.343 201.171L215.638 196.156C212.131 193.852 207.909 195.455 206.246 198.584L211.545 201.399ZM212.343 201.171L209.048 206.184C210.347 207.038 211.938 207.555 213.236 207.882L214.701 202.063L216.166 196.245C215.804 196.154 215.561 196.073 215.427 196.022C215.362 195.997 215.345 195.988 215.369 195.999C215.386 196.008 215.487 196.057 215.639 196.157L212.343 201.171ZM214.701 202.063L213.236 207.882C214.663 208.241 216.29 208.505 217.974 208.642L218.46 202.662L218.945 196.681C217.853 196.593 216.887 196.426 216.166 196.245L214.701 202.063ZM218.46 202.662L217.974 208.642C221.213 208.905 225.333 208.749 228.897 207.35L226.704 201.765L224.511 196.18C223.339 196.64 221.282 196.871 218.945 196.681L218.46 202.662ZM226.704 201.765L228.897 207.35C225.497 208.685 222.512 206.444 221.728 203.975L227.447 202.161L233.166 200.346C232.169 197.203 228.517 194.607 224.511 196.18L226.704 201.765ZM227.447 202.161L221.728 203.975C221.011 201.715 221.876 198.59 224.899 197.403L227.092 202.988L229.285 208.572C232.914 207.147 234.098 203.281 233.166 200.346L227.447 202.161ZM227.092 202.988L224.899 197.403C223.514 197.946 221.276 198.169 218.86 197.973L218.374 203.954L217.889 209.934C221.204 210.203 225.506 210.056 229.285 208.572L227.092 202.988ZM218.374 203.954L218.86 197.973C217.715 197.88 216.69 197.706 215.909 197.509L214.444 203.327L212.979 209.146C214.471 209.521 216.156 209.793 217.889 209.934L218.374 203.954ZM214.444 203.327L215.909 197.509C215.522 197.411 215.236 197.319 215.049 197.248C214.958 197.213 214.912 197.191 214.902 197.187C214.89 197.181 214.945 197.206 215.046 197.273L211.751 202.287L208.455 207.3C209.912 208.258 211.644 208.81 212.979 209.146L214.444 203.327ZM211.751 202.287L215.046 197.273C217.565 198.928 218.014 202.01 216.844 204.213L211.545 201.399L206.246 198.585C204.749 201.403 205.383 205.281 208.455 207.3L211.751 202.287ZM234.988 6.51249L229.521 4.04033L215.007 36.1391L220.474 38.6113L225.941 41.0834L240.455 8.98465L234.988 6.51249ZM220.474 38.6113L219.037 44.4367L253.072 52.8317L254.508 47.0063L255.945 41.1809L221.91 32.7859L220.474 38.6113ZM254.508 47.0063L251.28 52.0636L302.332 84.6562L305.561 79.5989L308.79 74.5416L257.737 41.9491L254.508 47.0063ZM305.561 79.5989L299.57 79.9316L303.574 152.03L309.565 151.698L315.556 151.365L311.552 79.2662L305.561 79.5989ZM297.553 234.661L291.654 235.76L299.662 278.723L305.561 277.624L311.459 276.524L303.451 233.561L297.553 234.661ZM305.561 277.624H299.561V357.13H305.561H311.561V277.624H305.561ZM305.561 357.13L310.765 360.116L334.289 319.129L329.085 316.142L323.881 313.155L300.357 354.143L305.561 357.13ZM329.085 316.142L323.299 317.73L329.806 341.434L335.592 339.846L341.378 338.258L334.871 314.554L329.085 316.142ZM335.592 339.846L338.303 345.198L375.341 326.433L372.63 321.08L369.918 315.728L332.88 334.494L335.592 339.846ZM411.67 321.08L416.472 317.483L390.946 283.409L386.144 287.006L381.342 290.604L406.868 324.678L411.67 321.08ZM386.144 287.006L391.406 284.125L367.882 241.162L362.619 244.043L357.357 246.925L380.881 289.888L386.144 287.006ZM362.619 244.043L368.369 245.757L378.38 212.177L372.63 210.463L366.88 208.749L356.87 242.329L362.619 244.043ZM372.63 210.463L378.443 208.978L363.428 150.212L357.614 151.698L351.801 153.183L366.816 211.948L372.63 210.463ZM357.614 151.698L363.542 150.771L350.028 64.3509L344.1 65.2779L338.172 66.2049L351.686 152.625L357.614 151.698ZM344.1 65.2779L348.589 61.2969L306.546 13.8895L302.057 17.8705L297.568 21.8516L339.611 69.259L344.1 65.2779ZM302.057 17.8705L303.508 12.0486L255.96 0.196789L254.508 6.01866L253.057 11.8405L300.606 23.6924L302.057 17.8705ZM254.508 6.01866L254.357 0.0205808L234.837 0.514408L234.988 6.51249L235.14 12.5106L254.66 12.0167L254.508 6.01866ZM309.565 151.698L303.807 150.01L291.795 190.998L297.553 192.685L303.31 194.373L315.323 153.385L309.565 151.698ZM297.553 192.685H291.553V234.661H297.553H303.553V192.685H297.553ZM372.63 321.08L366.842 322.663L375.351 353.774L381.138 352.192L386.926 350.609L378.417 319.498L372.63 321.08ZM381.138 352.192L378.435 357.548L399.957 368.412L402.661 363.056L405.364 357.699L383.842 346.835L381.138 352.192ZM457.717 344.784L460.463 339.449L414.416 315.746L411.67 321.08L408.924 326.415L454.971 350.119L457.717 344.784ZM402.661 363.056L402.897 369.051L440.436 367.57L440.199 361.574L439.962 355.579L402.424 357.06L402.661 363.056ZM440.199 361.574L444.351 365.906L461.869 349.116L457.717 344.784L453.565 340.452L436.047 357.243L440.199 361.574ZM96.3461 525.031V519.031H57.8065V525.031V531.031H96.3461V525.031ZM57.8065 525.031L54.7781 519.851L14.2365 543.555L17.2649 548.735L20.2933 553.914L60.8349 530.211L57.8065 525.031ZM17.2649 548.735H11.2649V598.611H17.2649H23.2649V548.735H17.2649ZM17.2649 598.611L12.5485 602.32L35.0716 630.962L39.788 627.253L44.5044 623.544L21.9813 594.902L17.2649 598.611ZM39.788 627.253L38.3923 633.089L87.9432 644.94L89.3389 639.105L90.7346 633.27L41.1838 621.418L39.788 627.253ZM89.3389 639.105L90.6832 644.953L142.236 633.101L140.892 627.253L139.548 621.406L87.9946 633.258L89.3389 639.105ZM140.892 627.253L136.888 631.722L191.444 680.611L195.448 676.142L199.452 671.674L144.896 622.785L140.892 627.253ZM195.448 676.142L194.231 682.018L234.773 690.413L235.989 684.537L237.206 678.662L196.664 670.267L195.448 676.142ZM235.989 684.537L236.599 690.506L265.629 687.543L265.019 681.574L264.41 675.605L235.38 678.568L235.989 684.537ZM265.019 681.574V687.574H280.035V681.574V675.574H265.019V681.574ZM280.035 681.574L285.789 683.275L289.292 671.423L283.538 669.722L277.784 668.021L274.281 679.873L280.035 681.574ZM283.538 669.722L287.612 665.318L231.555 613.466L227.481 617.871L223.407 622.275L279.464 674.127L283.538 669.722ZM227.481 617.871L224.455 623.051L287.019 659.595L290.045 654.414L293.071 649.233L230.507 612.69L227.481 617.871ZM290.045 654.414L295.729 656.334L299.733 644.482L294.049 642.562L288.365 640.641L284.361 652.493L290.045 654.414ZM294.049 642.562L298.357 638.385L265.323 604.311L261.015 608.488L256.707 612.664L289.741 646.738L294.049 642.562ZM261.015 608.488L264.027 613.677L272.536 608.739L269.524 603.55L266.512 598.36L258.003 603.298L261.015 608.488ZM269.524 603.55L273.957 599.506L269.452 594.568L265.019 598.611L260.586 602.655L265.091 607.593L269.524 603.55ZM265.019 598.611L266.565 592.814L248.046 587.876L246.5 593.673L244.954 599.47L263.473 604.409L265.019 598.611ZM246.5 593.673L249.19 588.309L218.658 573.001L215.969 578.364L213.28 583.728L243.811 599.037L246.5 593.673ZM215.969 578.364L218.121 572.763L161.563 551.035L159.411 556.636L157.259 562.237L213.817 583.965L215.969 578.364ZM159.411 556.636V550.636H123.374V556.636V562.636H159.411V556.636ZM123.374 556.636L128.101 552.94L114.587 535.656L109.86 539.352L105.133 543.048L118.647 560.332L123.374 556.636ZM109.86 539.352L114.224 535.234L100.71 520.913L96.3461 525.031L91.9823 529.149L105.496 543.47L109.86 539.352ZM119.87 330.463L115.696 326.154L88.1673 352.82L92.342 357.13L96.5166 361.439L124.045 334.773L119.87 330.463ZM92.342 357.13L87.5414 353.531L60.5136 389.58L65.3142 393.179L70.1148 396.778L97.1426 360.729L92.342 357.13ZM65.3142 393.179L68.5467 398.234L95.5745 380.95L92.342 375.895L89.1095 370.84L62.0817 388.124L65.3142 393.179ZM92.342 375.895L87.63 379.61L98.1408 392.943L102.853 389.229L107.565 385.514L97.0539 372.181L92.342 375.895ZM102.853 389.229L108.165 392.018L129.687 351.03L124.375 348.241L119.063 345.452L97.5406 386.439L102.853 389.229ZM124.375 348.241H118.375V375.895H124.375H130.375V348.241H124.375ZM124.375 375.895L129.027 379.684L151.55 352.03L146.898 348.241L142.246 344.452L119.723 372.106L124.375 375.895ZM146.898 348.241L152.563 350.218L163.074 320.094L157.409 318.117L151.744 316.141L141.233 346.264L146.898 348.241ZM157.409 318.117L151.61 319.659L159.618 349.782L165.417 348.241L171.216 346.699L163.207 316.576L157.409 318.117ZM165.417 348.241L171.113 350.126L187.13 301.731L181.433 299.846L175.737 297.961L159.721 346.356L165.417 348.241ZM181.433 299.846L187.033 302.001L202.048 262.989L196.449 260.833L190.849 258.678L175.834 297.691L181.433 299.846ZM196.449 260.833L202.216 259.179L187.201 206.833L181.433 208.488L175.666 210.142L190.681 262.488L196.449 260.833ZM181.433 208.488L187.247 207.003L171.23 144.287L165.417 145.772L159.604 147.256L175.62 209.972L181.433 208.488ZM165.417 145.772H171.417V87.0063H165.417H159.417V145.772H165.417ZM165.417 87.0063L171.148 88.7813L182.16 53.2257L176.428 51.4508L170.697 49.6758L159.686 85.2313L165.417 87.0063ZM176.428 51.4508L178.37 57.1279L215.909 44.2884L213.967 38.6113L212.025 32.9341L174.487 45.7737L176.428 51.4508ZM213.967 38.6113L218.986 41.8985L240.008 9.7997L234.988 6.51249L229.969 3.22528L208.947 35.324L213.967 38.6113ZM234.988 6.51249L233.033 0.84008L191.49 15.1611L193.446 20.8335L195.401 26.5059L236.944 12.1849L234.988 6.51249ZM193.446 20.8335L189.625 16.2076L168.103 33.9853L171.924 38.6113L175.745 43.2372L197.267 25.4594L193.446 20.8335ZM171.924 38.6113L166.657 35.7369L138.628 87.095L143.895 89.9693L149.162 92.8436L177.19 41.4856L171.924 38.6113ZM143.895 89.9693L137.927 89.3489L133.923 127.867L139.891 128.488L145.859 129.108L149.863 90.5897L143.895 89.9693ZM139.891 128.488L134.1 126.917L124.59 161.979L130.381 163.55L136.172 165.12L145.682 130.058L139.891 128.488ZM130.381 163.55L124.445 164.423L128.95 195.04L134.886 194.167L140.822 193.293L136.317 162.676L130.381 163.55ZM134.886 194.167L128.898 194.551L131.401 233.563L137.388 233.179L143.376 232.795L140.873 193.783L134.886 194.167ZM137.388 233.179L131.689 235.056L138.196 254.809L143.895 252.932L149.594 251.055L143.087 231.302L137.388 233.179ZM143.895 252.932H137.895V282.068H143.895H149.895V252.932H143.895ZM143.895 282.068L138.521 279.4L114.496 327.795L119.87 330.463L125.244 333.131L149.269 284.736L143.895 282.068ZM207.46 121.574L201.566 120.454L192.556 167.861L198.451 168.982L204.345 170.102L213.355 122.694L207.46 121.574ZM210.964 180.34L211.746 186.288L219.254 185.301L218.471 179.352L217.689 173.403L210.181 174.391L210.964 180.34ZM228.482 173.92L233.748 176.794L237.252 170.374L231.985 167.5L226.719 164.626L223.215 171.046L228.482 173.92ZM231.985 167.5L237.401 164.917L233.397 156.522L227.981 159.105L222.566 161.688L226.57 170.083L231.985 167.5ZM227.981 159.105L233.582 156.952L228.076 142.631L222.476 144.784L216.875 146.937L222.381 161.258L227.981 159.105ZM222.476 144.784L228.376 143.697L225.373 127.4L219.473 128.488L213.572 129.575L216.575 145.871L222.476 144.784ZM219.473 128.488L222.465 123.288L210.453 116.374L207.46 121.574L204.467 126.774L216.48 133.688L219.473 128.488ZM224.978 173.92V179.92H228.482V173.92V167.92H224.978V173.92ZM198.451 168.982L194.64 173.616L197.643 176.085L201.454 171.451L205.265 166.816L202.261 164.347L198.451 168.982ZM207.46 177.871L204.004 182.775L207.507 185.244L210.964 180.34L214.42 175.435L210.917 172.966L207.46 177.871ZM201.454 171.451L197.073 175.55L203.079 181.97L207.46 177.871L211.842 173.771L205.835 167.352L201.454 171.451ZM218.471 179.352L222.317 183.958L228.823 178.526L224.978 173.92L221.133 169.314L214.626 174.746L218.471 179.352ZM195.531 189.731L201.191 191.721C200.351 194.109 197.778 195.273 195.499 194.494L197.441 188.817L199.383 183.14C195.537 181.824 191.254 183.807 189.871 187.741L195.531 189.731ZM197.441 188.817L195.498 194.493C199.941 196.014 207.341 197.777 215.498 198.293L215.877 192.305L216.256 186.317C209.225 185.872 202.876 184.335 199.384 183.14L197.441 188.817ZM215.877 192.305L215.498 198.293C223.602 198.806 232.944 198.121 240.93 194.294L238.337 188.883L235.744 183.472C230.376 186.045 223.375 186.768 216.256 186.317L215.877 192.305ZM238.337 188.883L240.929 194.294C238.75 195.338 236.071 194.474 234.96 192.219L240.344 189.569L245.727 186.919C243.892 183.192 239.415 181.714 235.744 183.472L238.337 188.883ZM240.344 189.569L234.96 192.218C233.827 189.915 234.835 187.202 237.055 186.138L239.648 191.549L242.241 196.96C245.953 195.181 247.585 190.695 245.727 186.92L240.344 189.569ZM239.648 191.549L237.056 186.138C231.027 189.027 223.434 189.741 216.064 189.274L215.685 195.262L215.306 201.251C223.662 201.779 233.595 201.103 242.241 196.96L239.648 191.549ZM215.685 195.262L216.064 189.274C208.748 188.811 202.133 187.217 198.401 185.939L196.458 191.616L194.515 197.292C199.198 198.895 206.863 200.716 215.306 201.251L215.685 195.262ZM196.458 191.616L198.401 185.939C200.711 186.73 202.045 189.29 201.192 191.72L195.531 189.731L189.87 187.742C188.473 191.718 190.637 195.965 194.515 197.292L196.458 191.616ZM172.424 122.068L168.21 126.339C170.327 128.428 172.872 128.099 173.449 128.007C174.258 127.877 174.868 127.611 175.081 127.516C175.575 127.296 176.018 127.028 176.195 126.921C176.797 126.557 177.043 126.387 177.701 126.004C178.8 125.365 180.243 124.634 181.998 124.139C185.282 123.213 190.238 122.926 196.691 127.104L199.952 122.068L203.213 117.032C193.65 110.839 185.092 110.799 178.742 112.589C175.679 113.453 173.274 114.697 171.667 115.632C170.973 116.036 170.151 116.552 169.993 116.648C169.789 116.771 169.929 116.675 170.198 116.555C170.3 116.51 170.817 116.275 171.554 116.157C172.059 116.077 174.553 115.739 176.638 117.797L172.424 122.068ZM199.952 122.068L194.225 120.282C194.426 119.637 194.68 119.942 193.424 120.539C192.291 121.079 190.532 121.533 188.363 121.629C183.902 121.827 179.356 120.479 176.638 117.797L172.424 122.068L168.21 126.339C174.001 132.052 182.218 133.914 188.894 133.618C192.293 133.467 195.696 132.748 198.582 131.374C201.346 130.059 204.478 127.709 205.68 123.854L199.952 122.068ZM232.486 122.147L236.794 126.323C238.667 124.391 246.231 119.827 257.184 127.137L260.515 122.147L263.845 117.156C247.57 106.294 233.645 112.331 228.178 117.97L232.486 122.147ZM260.515 122.147L256.974 117.303C255.281 118.54 251.919 120.385 248.049 120.967C244.395 121.515 240.345 120.961 236.377 117.58L232.486 122.147L228.594 126.714C235.638 132.716 243.35 133.807 249.832 132.833C256.097 131.892 261.243 129.046 264.055 126.991L260.515 122.147Z" fill="#CECECE" mask="url(#path-1-outside-1_7_6)"/>
</svg>
